<?xml version="1.0" encoding="utf-8"?>
<!-- Generator: Adobe Illustrator 26.0.3, SVG Export Plug-In . SVG Version: 6.00 Build 0)  -->
<svg version="1.1" id="Layer_1" xmlns="http://www.w3.org/2000/svg" xmlns:xlink="http://www.w3.org/1999/xlink" x="0px" y="0px"
	 viewBox="0 0 246.5 246.5" style="enable-background:new 0 0 246.5 246.5;" xml:space="preserve">
<style type="text/css">
	.st0{fill:#FFFFFF;}
	.st1{fill:#138C44;}
	.st2{fill:#128C45;}
	.st3{fill:#EC4A24;}
</style>
<g>
	<circle class="st0" cx="123.2" cy="123.2" r="123.2"/>
</g>
<g>
	<path class="st1" d="M106.4,209.1c-0.3,0-0.6,0-1,0c-2.1-0.2-3.3-0.7-3.7-1.6c-0.6-1.3,0.4-3,1.7-4.9c1.6-2.5,3.4-5.3,2.4-8
		c-2.2-6-13.4-2.8-13.5-2.7l-0.4,0.1l-7.4-7.9c-0.8,0-2.9-0.1-3.8-0.9c-0.9-0.8-14.5-13.5-15.1-14.1l0.8-0.9
		c0.1,0.1,14.1,13.3,15,14c0.5,0.4,2.2,0.6,3.3,0.6H85l7.3,7.7c2.1-0.6,12.3-2.9,14.7,3.6c1.2,3.3-0.8,6.5-2.5,9.1
		c-0.9,1.5-1.9,3-1.6,3.7c0.2,0.3,0.8,0.8,2.7,0.9c6.5,0.5,7.6-4.7,8.5-8.9c0.3-1.3,0.5-2.4,0.9-3.2c1.3-2.9,4.4-3,6.1-2.6l18.1-9.4
		l10.5-25.2c0.7-1.7,2.4-6.7,2.5-8.4c0-0.9,0.4-1.9,0.8-3.2c0.6-1.9,1.4-4.1,1.1-6.3c-0.3-2.7,1-7.5,2.3-8.4c0.4-0.3,0.8-0.2,1-0.1
		c0.5,0.2,0.8,0.8,0.9,2c0.1,1.2,0.2,2.7,0.3,4.1c0,1.1,0.1,2.5,0.2,3.4c0.2-0.5,0.4-1.2,0.7-2.3c1.9-7,1.8-8.1,1.4-11.9
		c-0.1-0.9-0.2-2-0.3-3.3c-0.4-5.9,1.7-10.6,2.5-12L147.6,99l-28.8,0.8l-9.2,11l0.7,2.8c0.7,0.9,5.2,6.1,5.9,7.1
		c0.5,0.7,0.7,2,0.2,3.1c-0.3,0.7-1.1,1.8-3.3,2c-3.1,0.3-3.8,2.5-3.8,3.3c0,0.3-0.1,0.5-0.4,0.7c-1.1,0.9-6.3-0.3-9.3-1l-0.4-0.1
		l-2.6-30l-3.1-4.1h-6.8l-0.1-0.6c-0.1-1-0.9-10.2,0.5-12.2c0.6-0.9,1.7-1.5,2.7-2c1.4-0.8,2.8-1.5,2.8-3c0.1-1.5,0.9-2.3,1.5-2.8
		c0.7-0.6,1-0.9,0.1-2.2c-0.4-0.6-0.9-1.1-1.3-1.5c-0.8-0.9-1.6-1.7-1.5-2.9c0.1-1.2,1-2.6,3.4-4.7c1.4-1.3,2.8-2.3,4.1-3.3
		c3.5-2.8,6.3-5,8.2-9.7c1.3-3.2,3.3-7.1,7.1-8.6c3.2-1.2,7.1-0.7,12.1,1.7c11.5,5.5,34.7,18,34.9,18.2c0.3,0.1,7.1,3.6,8.6,4.6
		l0.3,0.2v7.3l-0.6,0.1c0,0-1.9,0.2-2.8,1.6c-0.2,0.3-0.6,0.7-1,1.3c-2.1,2.4-6.4,7.3-7.7,15l-1.2-0.2c1.3-8.1,5.8-13.2,8-15.6
		c0.4-0.5,0.8-0.9,1-1.1c0.9-1.3,2.4-1.8,3.2-2v-5.6c-1.9-1.2-8.2-4.3-8.2-4.4c-0.2-0.1-23.4-12.7-34.9-18.1
		c-4.6-2.2-8.3-2.7-11.1-1.6c-3.3,1.3-5.1,4.7-6.4,7.9c-2,5-4.9,7.3-8.6,10.2c-1.3,1-2.6,2-4,3.3c-2,1.8-2.9,3-3,3.8
		c0,0.6,0.4,1.1,1.2,2c0.4,0.5,0.9,1,1.4,1.7c1.4,2,0.7,2.9-0.2,3.8c-0.5,0.5-1.1,1-1.1,2c-0.1,2.1-1.9,3.1-3.5,4
		c-0.9,0.5-1.8,1-2.2,1.6c-0.8,1.2-0.7,7.1-0.4,10.9h6.2l3.7,4.9l2.6,29.5c3.2,0.8,6.8,1.4,7.7,1.2c0.1-1.6,1.5-3.9,4.9-4.3
		c1.1-0.1,1.9-0.6,2.3-1.3c0.4-0.8,0.2-1.6,0-1.9c-0.7-1-5.8-7-5.9-7.1l-0.1-0.1l-0.9-3.7l10-11.9l0.3,0l29.6-0.8l16.5,14.1
		l-0.3,0.4c0,0.1-3.1,5.2-2.6,11.8c0.1,1.3,0.2,2.4,0.3,3.3c0.4,3.9,0.5,5.1-1.4,12.3c-1,3.6-1.4,4.1-2.1,4.1
		c-0.9-0.1-1-1.3-1.2-5.5c-0.1-1.4-0.1-2.9-0.2-4.1c0-0.4-0.1-0.7-0.1-0.8c-0.7,1-1.9,4.6-1.6,7.1c0.3,2.5-0.5,4.9-1.2,6.8
		c-0.4,1.1-0.7,2.1-0.7,2.8c-0.1,2.2-2.5,8.5-2.6,8.8l-10.6,25.6l-18.9,9.8l-0.2-0.1c-0.1,0-3.6-1-4.9,1.9c-0.3,0.7-0.5,1.8-0.8,3
		C114.4,203.2,113.1,209.1,106.4,209.1z"/>
</g>
<g>
	<path class="st2" d="M116.6,52.3c0,0-3.4,6.5-5.6,8.4s-6.5,6.7-3.6,7s4.9-3.9,5.6-2.8c0.7,1.1-0.3,4.4-2.7,5.2
		c-2.3,0.8-7.6,2.4-6.3,3.8c1.3,1.3,6.5-0.6,6.2,0.8c0,0-0.7,1.8-3.9,3s-5,2.5-0.4,2.4c0,0,0.4-0.1,0.5,1s-7.2,3.5-7.5,5.6
		c0,0,3.9-0.8,6.6-0.7c2.6,0.2-5.2,5.3-6.1,7.1c-0.9,1.7,8.5,0.5,8.5,0.5l21.6-8.5c0,0-1.3-3.9,0-5.6s6-0.3,0-3.5
		c0,0-2.2-1.5-1.6-2.3s7-0.3,1.9-2.9s-6.9,0.6-6.7-4c0,0,0.5-2,7.4,0.5c0,0,0.3-3.1-6.5-7C117,56.7,117.3,54.3,116.6,52.3z"/>
</g>
<g>
	<path class="st1" d="M122.9,108.5c0,0-1,4.2-2.2,4.8c-1.1,0.6-5.1,3.9,1.1,2.8s4.3,0.1,3.5,0.9c0,0-4.5,0.9-4.6,3
		c-0.1,2,0.8,2.2-0.3,3.2c-1.1,1-1.3,2.5-1.3,2.5s2,0.4,3.8,0s5.5-1.4,1.6,1.7s-9.6,8.9-9.6,8.9s-2.1,2.4-2.1,3.9s-4.8,3.4-0.6,3
		c4.2-0.4,10.2-5.3,11.6-3.1s-2.2,4.4-7.2,6.2c-5,1.8-10.3,4.9-11.2,6h3.4c0,0-0.9,3.9,2,3.3s11.4-3.6,6.4,0.1
		c-5,3.7-11.5,5.1-11.8,7.4h6.7c0,0-4.9,6.3-13.3,10.4c0,0,6.6,1.4,11.8,1.2c0,0-11.6,7.6-15,8.7c0,0,10,2.5,15.9,3.1
		c5.9,0.5,8.5,2.8,6.5,4.6s-11.5,0.3-16.8,5.5c0,0,8,0.1,12.9,1.2c0,0-0.9,2.8,3.4,2.8c4.3,0,8.6-3.8,8.6-1c0,2.8,0,7.6,0,7.6h8.4
		v-6.7c0,0,4.8-4.4,8.3-3.1s10.7,4.8,18.7,3.6c0,0-5.3-3.3-6-4.9c0,0,13.5-2.1,15.4-3.9l-21.8-0.3c0,0,3.4-8.6,24.6-10.3
		c0,0-6-5.2-15.4-5.6l-0.3-3.9l10.6-0.2c0,0,0-4.6-14.8-8.7c0,0,4.9-1.5,7.2-1.5c0,0-6.3-6-13-7.6c0,0-1.7-3.6,1.6-2.2
		s6,1.7,6.9-0.2c0,0,2-0.9,4.1-0.5c0,0-5.3-5.2-10.7-5.4s-8.6-2.3-7.5-4.3c1.1-2,8.7-1.7,13-0.2c0,0-4.4-9.3-15.6-13.9
		c0,0-1.1-2.7,0.5-2.6s6.6,0,6.6,0s-0.8-2.2-3.1-2.9l0.2-2.8l-2.3-1.3l-0.2-2.5l3.9-0.4c0,0-0.2-1.7-3-2.3l0.6-3.2l-9.8-6.2
		c0,0-7.7-0.1-8.6,0.6S122.9,108.5,122.9,108.5z"/>
</g>
<g>
	<path class="st3" d="M61.5,171.1l40.2-21.4l-11.8-5.5c0,0,19-34.7,39.6-37.6s42.2,30.9,43.9,35l18.5-20.6c0,0-31.8-47.4-78.8-35.3
		c0,0-28,9-44.7,46l-12.7-4.3L61.5,171.1z"/>
	<path class="st1" d="M61,172.1L55,126.5l13.1,4.4c16.6-36.4,44.5-45.8,44.8-45.9c5.2-1.3,10.4-2,15.5-2c38.3,0,63.7,37.2,63.9,37.6
		l0.3,0.4l-19.5,21.7l-0.4-0.9c-2-5-21.8-34.8-40.8-34.8c-0.8,0-1.7,0.1-2.5,0.2c-18.7,2.6-36.3,32.2-38.8,36.7l12.3,5.7L61,172.1z
		 M56.5,128.3l5.5,41.9l38.4-20.4L89,144.5l0.3-0.6c0.8-1.4,19.3-35,40.1-37.9c0.9-0.1,1.7-0.2,2.6-0.2c19.6,0,38.3,28.8,41.5,34.7
		l17.6-19.6c-2.8-4-27.1-36.6-62.7-36.6c-5,0-10.1,0.7-15.2,2c-0.2,0.1-27.9,9.4-44.2,45.7l-0.2,0.5L56.5,128.3z"/>
</g>
<g>
	<path class="st1" d="M123.2,241.6C58,241.6,4.9,188.5,4.9,123.3S58,4.9,123.2,4.9S241.6,58,241.6,123.3S188.5,241.6,123.2,241.6z
		 M123.2,7.3C59.3,7.3,7.3,59.3,7.3,123.2s52,115.9,115.9,115.9s115.9-52,115.9-115.9S187.2,7.3,123.2,7.3z"/>
</g>
<g>
	<path class="st1" d="M29.4,169.9l0.3,3.2c-1.6,0.2-3-0.1-4.1-0.9c-1.1-0.7-2-1.9-2.6-3.4c-0.8-1.9-0.8-3.8-0.1-5.5s2.1-3,4.2-3.9
		c2.2-0.9,4.2-1,5.9-0.2c1.7,0.8,3,2.2,3.9,4.2c0.7,1.8,0.8,3.4,0.3,4.9c-0.3,0.9-0.9,1.7-1.8,2.5l-1.8-2.7c0.6-0.5,1-1,1.2-1.8
		c0.2-0.7,0.1-1.5-0.2-2.2c-0.4-1.1-1.2-1.8-2.1-2.2c-1-0.4-2.3-0.3-3.9,0.4c-1.7,0.7-2.7,1.5-3.2,2.5c-0.4,1-0.4,2,0,3
		c0.3,0.8,0.8,1.4,1.5,1.7C27.5,170,28.4,170.1,29.4,169.9z"/>
	<path class="st1" d="M33.5,174.5c1.2-0.8,2.4-1.3,3.5-1.4c0.8-0.1,1.6-0.1,2.5,0.1c0.8,0.2,1.6,0.5,2.2,1c0.9,0.6,1.6,1.4,2.4,2.5
		c1.3,1.9,1.8,3.9,1.4,5.7c-0.3,1.9-1.5,3.5-3.4,4.8c-1.9,1.3-3.8,1.7-5.7,1.3c-1.9-0.4-3.4-1.6-4.7-3.5c-1.3-2-1.8-3.9-1.5-5.7
		C30.5,177.4,31.6,175.8,33.5,174.5z M35.4,177.2c-1.4,0.9-2.2,1.9-2.4,3.1s0,2.3,0.7,3.3c0.7,1.1,1.6,1.7,2.8,1.9s2.4-0.1,3.8-1.1
		c1.4-0.9,2.2-1.9,2.4-3c0.2-1.1,0-2.2-0.7-3.3c-0.7-1.1-1.7-1.7-2.8-2C38,175.9,36.8,176.3,35.4,177.2z"/>
	<path class="st1" d="M38.9,194.6L49,184.5l3.4,3.4l-4.9,9l8.9-4.9l3.4,3.4l-10.2,10.2l-2.1-2.1l8-8l-10.2,5.8l-2.2-2.2l5.8-10.2
		l-8,8L38.9,194.6z"/>
	<path class="st1" d="M53.6,208.5l8.2-11.8l4.2,2.9c1.6,1.1,2.6,1.9,3,2.3c0.6,0.7,1,1.5,1.1,2.5c0.1,0.9-0.2,1.9-0.9,2.8
		c-0.5,0.7-1.1,1.2-1.7,1.5s-1.3,0.4-1.9,0.4c-0.6,0-1.2-0.2-1.7-0.4c-0.7-0.3-1.6-0.9-2.8-1.7l-1.7-1.2l-3.1,4.4L53.6,208.5z
		 M63,200.5l-2.3,3.3l1.4,1c1,0.7,1.8,1.1,2.2,1.3s0.8,0.1,1.2,0c0.4-0.1,0.7-0.4,0.9-0.7c0.3-0.4,0.4-0.9,0.3-1.4
		c-0.1-0.5-0.3-0.9-0.7-1.3c-0.3-0.3-0.9-0.7-1.8-1.4L63,200.5z"/>
	<path class="st1" d="M67.1,217.4l6.4-12.9l10.5,5.2l-1.1,2.2l-7.6-3.8l-1.4,2.9l7.1,3.5l-1.1,2.2l-7.1-3.5l-1.7,3.5l7.9,3.9
		l-1.1,2.2L67.1,217.4z"/>
	<path class="st1" d="M85.1,225.4l3.8-11.3l-4.4-1.5l0.8-2.3l11.9,4l-0.8,2.3l-4.4-1.5l-3.8,11.3L85.1,225.4z"/>
	<path class="st1" d="M95.5,228.5l3.2-14l3.1,0.7l-3.2,14L95.5,228.5z"/>
	<path class="st1" d="M106.1,230.5l1.6-11.8l-4.6-0.6l0.3-2.4l12.4,1.6l-0.3,2.4l-4.6-0.6l-1.6,11.8L106.1,230.5z"/>
	<path class="st1" d="M116.9,231.6l0.7-14.4l3.2,0.2l-0.7,14.4L116.9,231.6z"/>
	<path class="st1" d="M123.2,224.9c-0.1-1.5,0.1-2.7,0.5-3.7c0.3-0.8,0.8-1.4,1.3-2.1c0.6-0.6,1.2-1.1,1.9-1.4
		c1-0.4,2.1-0.7,3.4-0.8c2.3-0.2,4.2,0.4,5.7,1.6c1.5,1.2,2.3,3,2.5,5.3c0.2,2.3-0.4,4.2-1.7,5.6c-1.3,1.4-3.1,2.2-5.4,2.4
		c-2.3,0.2-4.2-0.4-5.7-1.6C124.2,228.9,123.3,227.2,123.2,224.9z M126.4,224.6c0.1,1.6,0.6,2.8,1.5,3.6c0.9,0.8,2,1.1,3.2,1
		c1.3-0.1,2.3-0.6,3-1.5c0.8-0.9,1.1-2.2,1-3.8c-0.1-1.6-0.6-2.8-1.4-3.6c-0.8-0.8-1.9-1.1-3.2-1c-1.3,0.1-2.3,0.6-3.1,1.5
		C126.6,221.7,126.3,222.9,126.4,224.6z"/>
	<path class="st1" d="M143,230.2l-3.3-14l3-0.7l8.5,7.9l-2.2-9.3l2.9-0.7l3.3,14l-3.1,0.7l-8.3-7.7l2.1,9.1L143,230.2z"/>
	<path class="st1" d="M166.4,223.4l-6.2-12.9l6-2.9c1.5-0.7,2.7-1.1,3.5-1.2c0.8-0.1,1.6,0,2.3,0.4c0.7,0.4,1.2,1,1.6,1.7
		c0.5,1,0.5,1.9,0.2,2.9c-0.3,0.9-1.1,1.8-2.2,2.6c0.8,0,1.5,0.1,2.1,0.3c0.6,0.2,1.5,0.6,2.6,1.3l3,1.7l-3.4,1.7l-3.4-1.8
		c-1.2-0.7-2-1-2.4-1.2s-0.8-0.2-1.1-0.1s-0.9,0.2-1.5,0.6l-0.6,0.3l2.6,5.4L166.4,223.4z M165.7,214.6l2.1-1
		c1.4-0.7,2.2-1.1,2.5-1.4c0.3-0.3,0.5-0.6,0.5-0.9c0.1-0.4,0-0.7-0.2-1.1c-0.2-0.4-0.5-0.7-0.9-0.9c-0.4-0.1-0.8-0.1-1.3,0
		c-0.2,0.1-1,0.4-2.1,1l-2.2,1.1L165.7,214.6z"/>
	<path class="st1" d="M181.5,215.6l-7.7-12.2l2.7-1.7l7.7,12.2L181.5,215.6z"/>
	<path class="st1" d="M178.8,200.4l4.5-3.7c1-0.8,1.9-1.4,2.5-1.7c0.9-0.4,1.8-0.5,2.7-0.5c0.9,0.1,1.8,0.4,2.6,0.9
		c0.8,0.5,1.7,1.3,2.5,2.3c0.7,0.9,1.3,1.8,1.5,2.7c0.4,1.1,0.4,2.1,0.3,3c-0.1,0.7-0.5,1.5-1,2.3c-0.4,0.6-1.1,1.3-2,2l-4.7,3.8
		L178.8,200.4z M182.9,200.3l6,7.4l1.9-1.5c0.7-0.6,1.2-1,1.4-1.3c0.3-0.4,0.5-0.8,0.6-1.3c0.1-0.4,0-1-0.2-1.6
		c-0.2-0.6-0.7-1.4-1.4-2.2c-0.7-0.9-1.3-1.5-1.9-1.8c-0.5-0.3-1.1-0.5-1.6-0.5s-1,0.1-1.6,0.4c-0.4,0.2-1.1,0.7-2.1,1.5
		L182.9,200.3z"/>
	<path class="st1" d="M201.3,200.2l-10.8-9.5l7.7-8.8l1.8,1.6l-5.6,6.4l2.4,2.1l5.2-6l1.8,1.6l-5.2,6l2.9,2.6l5.8-6.6l1.8,1.6
		L201.3,200.2z"/>
	<path class="st1" d="M211.9,187.5l-12.3-7.4l3.5-5.7c0.9-1.4,1.6-2.4,2.2-3c0.6-0.5,1.3-0.8,2.1-0.9c0.8-0.1,1.6,0.1,2.3,0.6
		c0.9,0.6,1.5,1.3,1.8,2.3c0.2,1,0.1,2.1-0.5,3.4c0.7-0.4,1.3-0.7,1.9-0.8c0.6-0.2,1.6-0.3,2.9-0.4l3.4-0.2l-2,3.3l-3.9,0.4
		c-1.4,0.1-2.3,0.2-2.7,0.4c-0.4,0.1-0.7,0.3-1,0.5c-0.3,0.2-0.6,0.7-1,1.3l-0.3,0.6l5.1,3.1L211.9,187.5z M206.5,180.5l1.2-2
		c0.8-1.3,1.2-2.2,1.3-2.5c0.1-0.4,0.1-0.7-0.1-1.1c-0.1-0.3-0.4-0.6-0.8-0.8c-0.4-0.2-0.8-0.3-1.2-0.2s-0.8,0.3-1.1,0.7
		c-0.2,0.2-0.6,0.9-1.2,2l-1.3,2.1L206.5,180.5z"/>
	<path class="st1" d="M216,171.2l0.8-3c1,0.2,1.7,0,2.4-0.3c0.6-0.4,1.1-1,1.4-1.9c0.4-1,0.4-1.8,0.2-2.4c-0.2-0.6-0.5-1-1-1.2
		c-0.3-0.1-0.6-0.1-0.9,0c-0.3,0.1-0.6,0.4-1,0.9c-0.2,0.3-0.7,1-1.5,2.2c-1,1.5-1.8,2.4-2.6,2.9c-1.1,0.6-2.1,0.8-3.2,0.4
		c-0.7-0.3-1.3-0.7-1.7-1.4c-0.4-0.6-0.7-1.4-0.7-2.4s0.2-1.9,0.6-3.1c0.7-1.9,1.6-3.1,2.7-3.8s2.3-0.8,3.5-0.4l-1,3
		c-0.7-0.1-1.3,0-1.8,0.3c-0.5,0.3-0.8,0.9-1.2,1.7c-0.3,0.9-0.4,1.6-0.3,2.2c0.1,0.4,0.3,0.7,0.7,0.8c0.3,0.1,0.6,0.1,1-0.1
		c0.4-0.3,1.1-1.1,1.9-2.4c0.8-1.3,1.6-2.3,2.2-2.9s1.2-1,2-1.1c0.7-0.2,1.5-0.1,2.4,0.2c0.8,0.3,1.4,0.8,1.9,1.5
		c0.5,0.7,0.8,1.6,0.8,2.6c0,1-0.2,2.1-0.7,3.4c-0.7,1.9-1.6,3.2-2.8,3.9C218.9,171.3,217.5,171.5,216,171.2z"/>
</g>
<g>
	<path class="st1" d="M45.1,56c-1-1.1-1.6-2.1-2-3.1c-0.2-0.8-0.3-1.5-0.3-2.4c0-0.8,0.2-1.6,0.5-2.2c0.4-0.9,1.1-1.7,2-2.5
		c1.6-1.5,3.3-2.1,5.1-2.1s3.5,1,5.1,2.7c1.5,1.7,2.3,3.4,2.2,5.3c-0.1,1.8-0.9,3.5-2.5,4.9c-1.6,1.5-3.3,2.2-5.1,2.1
		C48.3,58.5,46.6,57.6,45.1,56z M47.3,53.8c1.1,1.2,2.2,1.8,3.3,1.9c1.1,0.1,2.1-0.3,3-1.1c0.9-0.8,1.3-1.8,1.3-2.9
		s-0.5-2.3-1.7-3.5c-1.1-1.2-2.2-1.8-3.3-1.9s-2.1,0.3-3,1.1s-1.4,1.8-1.4,2.9C45.7,51.5,46.2,52.6,47.3,53.8z"/>
	<path class="st1" d="M66.9,40.9l2.9-0.9c0.5,1.5,0.5,2.9,0.1,4.1s-1.3,2.2-2.6,3.1c-1.6,1.1-3.3,1.4-5.1,1
		c-1.8-0.4-3.2-1.5-4.5-3.4c-1.3-2-1.8-3.8-1.5-5.6c0.3-1.8,1.3-3.2,3.1-4.4c1.5-1,3-1.4,4.5-1.1c0.9,0.1,1.8,0.6,2.7,1.3l-2.1,2.2
		c-0.6-0.5-1.2-0.8-1.9-0.9c-0.7,0-1.4,0.1-2,0.6c-0.9,0.6-1.4,1.4-1.6,2.4c-0.1,1,0.2,2.2,1.2,3.6c1,1.5,2,2.4,2.9,2.6
		s1.9,0.1,2.8-0.5c0.7-0.4,1.1-1,1.3-1.7C67.3,42.7,67.2,41.9,66.9,40.9z"/>
	<path class="st1" d="M74.2,42.6l-6.1-12.8l9.8-4.7l1,2.2l-7.1,3.4l1.3,2.8l6.6-3.2l1,2.2l-6.6,3.2l1.7,3.5l7.4-3.5l1,2.2L74.2,42.6
		z"/>
	<path class="st1" d="M98.9,33l-3.1,1l-2.2-2.7L88.1,33l-0.2,3.4l-3,0.9l1.2-15.2l3-0.9L98.9,33z M92,29.3l-3.5-4.4l-0.3,5.6
		L92,29.3z"/>
	<path class="st1" d="M100.2,32.8l-2.2-14l2.8-0.5l7.4,8.4l-1.5-9.3l2.7-0.4l2.2,14l-2.9,0.5l-7.3-8.2l1.4,9.1L100.2,32.8z"/>
	<path class="st1" d="M129.9,25.7l2.8,1c-0.5,1.5-1.3,2.6-2.3,3.3s-2.4,1-3.9,1c-1.9-0.1-3.5-0.8-4.7-2.1c-1.2-1.3-1.7-3.1-1.7-5.3
		c0.1-2.4,0.8-4.2,2.1-5.4c1.3-1.2,3-1.8,5-1.7c1.8,0.1,3.2,0.6,4.3,1.7c0.6,0.6,1.1,1.5,1.4,2.7l-3,0.6c-0.1-0.7-0.5-1.3-1-1.8
		c-0.5-0.4-1.2-0.7-2-0.7c-1.1,0-2,0.3-2.7,1c-0.7,0.7-1.1,1.9-1.2,3.6c-0.1,1.8,0.2,3.1,0.8,3.9c0.6,0.8,1.5,1.2,2.5,1.2
		c0.8,0,1.5-0.2,2.1-0.6C129.1,27.5,129.6,26.7,129.9,25.7z"/>
	<path class="st1" d="M135.5,24.3c0.3-1.4,0.7-2.6,1.3-3.4c0.5-0.6,1-1.2,1.7-1.6c0.7-0.5,1.4-0.8,2.1-0.9c1-0.2,2-0.2,3.2,0
		c2.1,0.4,3.7,1.4,4.7,2.9s1.3,3.4,0.9,5.7c-0.4,2.2-1.4,3.9-2.9,4.9c-1.5,1-3.3,1.3-5.4,0.9c-2.1-0.4-3.7-1.4-4.7-2.9
		C135.3,28.3,135,26.5,135.5,24.3z M138.5,24.8c-0.3,1.6-0.2,2.8,0.4,3.8c0.6,1,1.5,1.6,2.6,1.8c1.2,0.2,2.2,0,3.1-0.7
		c0.9-0.7,1.5-1.8,1.8-3.4c0.3-1.6,0.2-2.9-0.4-3.8c-0.6-0.9-1.5-1.5-2.7-1.7c-1.2-0.2-2.2,0-3.1,0.6
		C139.4,22,138.8,23.2,138.5,24.8z"/>
	<path class="st1" d="M154.8,21.1l2.8,1l-2.6,7.2c-0.4,1.1-0.6,1.9-0.7,2.3c-0.1,0.6,0.1,1.1,0.4,1.6c0.3,0.5,0.9,0.9,1.7,1.2
		c0.8,0.3,1.4,0.3,2,0.2c0.5-0.2,0.9-0.5,1.1-0.9c0.2-0.4,0.6-1.2,0.9-2.2l2.6-7.4l2.8,1l-2.5,7c-0.6,1.6-1.1,2.7-1.4,3.3
		c-0.4,0.6-0.9,1.1-1.4,1.4c-0.6,0.3-1.2,0.5-2,0.5c-0.8,0-1.7-0.2-2.8-0.5c-1.3-0.5-2.3-1-2.8-1.5c-0.6-0.5-1-1.1-1.2-1.7
		c-0.2-0.6-0.3-1.2-0.3-1.8c0.1-0.8,0.4-2,0.9-3.5L154.8,21.1z"/>
	<path class="st1" d="M163.6,39.5l6.7-12.5l2.5,1.4l0.8,11.2l4.5-8.3l2.4,1.3L173.9,45l-2.6-1.4l-0.9-10.9l-4.3,8.1L163.6,39.5z"/>
	<path class="st1" d="M179,48.5l6.9-9.5l-3.5-2.5l1.4-1.9l9.4,6.8l-1.4,1.9l-3.5-2.5l-6.9,9.5L179,48.5z"/>
	<path class="st1" d="M188.9,56.5l4.1-4.3l1.8-9.6l2.5,2.4l-1.4,6.4l6.3-1.7l2.5,2.3l-9.6,2.3l-4.1,4.3L188.9,56.5z"/>
</g>
<g>
	<path class="st1" d="M122.6,109.5c0,0,1.1-2.8,0.9-4.7l9.4-0.4c0,0,8.6,4.9,10,6.3l-18,0.6L122.6,109.5z"/>
</g>
<g>
	<path class="st1" d="M124.7,106.6c-0.2,0-16.6-5.5-34.1-5.7l1.1-2.4c17.9,0.2,37.2,6.5,37.3,6.5L124.7,106.6z"/>
</g>
</svg>
